<svg xmlns="http://www.w3.org/2000/svg" width="12" height="12" viewBox="0 0 12 12">
    <path fill="gray" d="M6 0C2.694 0 0 2.694 0 6s2.694 6 6 6 6-2.694 6-6-2.694-6-6-6zm0 .923c2.809 0 5.077 2.268 5.077 5.077S8.809 11.077 6 11.077.923 8.809.923 6 3.191.923 6 .923zm.054 1.846c-1.118.065-2.03 1.003-2.03 2.142h.923c0-.75.65-1.338 1.442-1.2.567.097 1.014.652.996 1.236-.015.512-.314.837-.754 1.031-.274.123-.534.238-.754.47-.22.23-.339.572-.339.937h.924c0-.21.028-.242.086-.303.054-.058.206-.148.454-.26.69-.3 1.28-.959 1.306-1.846.032-1.05-.721-1.998-1.764-2.178-.165-.025-.331-.036-.49-.029zm-.516 5.539v.923h.924v-.923h-.924z"/>
</svg>
