<svg xmlns="http://www.w3.org/2000/svg" width="18" height="18" viewBox="0 0 18 18">
    <path fill="#4D4D4D" d="M9 0c4.963 0 9 4.037 9 9s-4.037 9-9 9-9-4.037-9-9 4.037-9 9-9zm0 13.162c-.414 0-.75.336-.75.75 0 .415.336.75.75.75s.75-.335.75-.75c0-.414-.336-.75-.75-.75zm0-9.037c-1.86 0-3.375 1.514-3.375 3.375 0 .414.335.75.75.75s.75-.336.75-.75c0-1.033.84-1.875 1.875-1.875 1.034 0 1.875.842 1.875 1.875 0 .458-.552 1.392-1.316 1.744-.795.367-1.309 1.169-1.309 2.044v.337c0 .414.335.75.75.75s.75-.336.75-.75v-.337c0-.292.172-.56.437-.682 1.309-.603 2.188-2.093 2.188-3.106 0-1.86-1.514-3.375-3.375-3.375z"/>
</svg>
