<svg xmlns="http://www.w3.org/2000/svg" width="18" height="18" viewBox="0 0 18 18">
    <path fill="#4D4D4D" d="M9.914 15.75c.559 0 1.012.45 1.012 1.006s-.453 1.006-1.012 1.006H7.888c-.559 0-1.012-.45-1.012-1.006s.453-1.006 1.012-1.006h2.026zM8.9 0c.777 0 1.406.63 1.406 1.406V2.41c1.092.252 2.106.795 2.925 1.585 1.209 1.166 1.89 2.77 1.89 4.444v3.866c0 .427.348.774.777.774.43 0 .778.346.778.773 0 .427-.348.773-.778.773H1.903c-.43 0-.778-.346-.778-.773 0-.427.348-.773.778-.773.43 0 .777-.347.777-.774V8.663c-.03-2.979 2.01-5.518 4.814-6.225V1.406C7.495.63 8.125 0 8.902 0z"/>
</svg>
