<svg xmlns="http://www.w3.org/2000/svg" width="16" height="16" viewBox="0 0 16 16">
    <path fill="#4D4D4D" d="M4.689 8.746c.336 0 .61.273.61.61 0 .306-.226.56-.52.603l-.09.006-2.117-.001 1.95 1.834c1.14 1.14 2.785 1.616 4.357 1.26 1.572-.356 2.852-1.493 3.39-3.013.124-.351.51-.535.861-.41.351.123.536.51.411.86-.692 1.957-2.34 3.422-4.364 3.88-1.943.44-3.973-.108-5.416-1.438l-.178-.17-1.866-1.754.002 1.922c0 .306-.226.56-.52.603l-.09.007c-.306 0-.559-.226-.602-.52l-.007-.09v-3.58c0-.305.225-.558.52-.602l.09-.007h3.579zm7.038-5.828l.192.169.177.17 1.845 1.734.002-2.09c0-.306.225-.56.52-.603l.09-.007c.305 0 .558.226.602.52l.006.09v3.58c0 .305-.225.559-.519.602l-.09.007h-3.58c-.336 0-.609-.273-.609-.61 0-.306.226-.559.52-.602l.09-.007 1.934-.001-1.75-1.644c-1.14-1.14-2.784-1.616-4.357-1.26-1.572.356-2.851 1.493-3.389 3.013-.124.351-.51.535-.861.41-.352-.124-.536-.51-.412-.86.693-1.957 2.34-3.422 4.365-3.88 1.858-.42 3.796.062 5.224 1.269z"/>
</svg>
